<svg width="60" height="37" viewBox="0 0 60 37" fill="none" xmlns="http://www.w3.org/2000/svg">
<path fill-rule="evenodd" clip-rule="evenodd" d="M54.4072 0H5.56844C2.47768 0 -0.0243509 2.61744 0.000178837 5.79395V25.1071C0.000178837 28.3091 2.50222 30.9011 5.59297 30.9011H28.7245L39.2969 37L36.893 30.9011H54.4072C57.498 30.9011 60 28.3091 60 25.1071V5.79395C60 2.59203 57.498 0 54.4072 0ZM2.99279 5.26025C3.3362 4.77742 3.85133 4.5233 4.53816 4.47248C5.78918 4.37083 6.50054 4.98072 6.67225 6.30215C7.43268 11.6133 8.26669 16.1112 9.14976 19.796L14.5218 9.19913C15.0124 8.23347 15.6256 7.72523 16.3615 7.6744C17.4408 7.59817 18.1031 8.3097 18.373 9.80902C18.9862 13.1888 19.7712 16.0604 20.7033 18.5C21.3411 12.0453 22.4204 7.39487 23.9412 4.5233C24.3092 3.81176 24.8488 3.456 25.5602 3.40517C26.1244 3.35435 26.6395 3.53223 27.1056 3.91341C27.5716 4.2946 27.8169 4.77742 27.866 5.3619C27.8905 5.81932 27.8169 6.2005 27.6207 6.58168C26.664 8.41136 25.8791 11.4862 25.2413 15.7555C24.628 19.8976 24.4073 23.125 24.5545 25.4375C24.6035 26.0728 24.5054 26.6318 24.2601 27.1147C23.9657 27.6737 23.5242 27.9787 22.96 28.0295C22.3223 28.0803 21.6599 27.7754 21.0222 27.0892C18.7409 24.6751 16.9257 21.0666 15.6011 16.2637C14.0067 19.5164 12.8292 21.956 12.0688 23.5824C10.6215 26.4539 9.39506 27.9278 8.36481 28.0041C7.70251 28.0549 7.13832 27.4704 6.64773 26.2506C5.39671 22.9217 4.04757 16.4924 2.60031 6.96287C2.52672 6.30215 2.64937 5.71767 2.99279 5.26025ZM55.7318 9.24996C54.8487 7.64899 53.5487 6.68333 51.807 6.30215C51.341 6.2005 50.8994 6.14968 50.4824 6.14968C48.1276 6.14968 46.2143 7.42028 44.7179 9.96149C43.4424 12.1215 42.8046 14.5103 42.8046 17.1277C42.8046 19.0844 43.1971 20.7616 43.982 22.1593C44.8651 23.7603 46.1652 24.7259 47.9068 25.1071C48.3729 25.2088 48.8144 25.2596 49.2314 25.2596C51.6108 25.2596 53.5241 23.989 54.9959 21.4478C56.2715 19.2623 56.9092 16.8736 56.9092 14.2561C56.9092 12.274 56.5168 10.6222 55.7318 9.24996ZM52.6411 16.2891C52.2976 17.9663 51.6844 19.2115 50.7768 20.0501C50.0654 20.7108 49.4031 20.9903 48.7899 20.8633C48.2012 20.7362 47.7106 20.2026 47.3426 19.2115C47.0483 18.4237 46.9011 17.636 46.9011 16.899C46.9011 16.2637 46.9501 15.6284 47.0728 15.0439C47.2936 14.002 47.7106 12.9855 48.3729 12.0199C49.1824 10.7747 50.0409 10.2664 50.924 10.4443C51.5127 10.5714 52.0033 11.105 52.3712 12.0961C52.6656 12.8839 52.8128 13.6717 52.8128 14.4086C52.8128 15.0693 52.7392 15.7046 52.6411 16.2891ZM36.4269 6.30215C38.144 6.68333 39.4686 7.64899 40.3516 9.24996C41.1366 10.6222 41.5291 12.274 41.5291 14.2561C41.5291 16.8736 40.8913 19.2623 39.6157 21.4478C38.144 23.989 36.2306 25.2596 33.8512 25.2596C33.4342 25.2596 32.9927 25.2088 32.5266 25.1071C30.785 24.7259 29.4849 23.7603 28.6019 22.1593C27.8169 20.7616 27.4244 19.0844 27.4244 17.1277C27.4244 14.5103 28.0622 12.1215 29.3378 9.96149C30.8341 7.42028 32.7474 6.14968 35.1023 6.14968C35.5193 6.14968 35.9608 6.2005 36.4269 6.30215ZM35.3966 20.0501C36.3042 19.2115 36.9175 17.9663 37.2609 16.2891C37.3835 15.7046 37.4326 15.0693 37.4326 14.4086C37.4326 13.6717 37.2854 12.8839 36.9911 12.0961C36.6231 11.105 36.1325 10.5714 35.5438 10.4443C34.6607 10.2664 33.8022 10.7747 32.9927 12.0199C32.3304 12.9855 31.9134 14.002 31.6926 15.0439C31.57 15.6284 31.5209 16.2637 31.5209 16.899C31.5209 17.636 31.6681 18.4237 31.9625 19.2115C32.3304 20.2026 32.821 20.7362 33.4097 20.8633C34.023 20.9903 34.6853 20.7108 35.3966 20.0501Z" fill="#33363B"/>
</svg>
